<?xml version="1.0" encoding="utf-8"?>
<!-- Generator: Adobe Illustrator 16.0.0, SVG Export Plug-In . SVG Version: 6.00 Build 0)  -->
<!DOCTYPE svg PUBLIC "-//W3C//DTD SVG 1.1//EN" "http://www.w3.org/Graphics/SVG/1.1/DTD/svg11.dtd">
<svg version="1.1" id="Layer_1" xmlns="http://www.w3.org/2000/svg" xmlns:xlink="http://www.w3.org/1999/xlink" x="0px" y="0px"
	 width="34.354px" height="34.39px" viewBox="0 0 34.354 34.39" enable-background="new 0 0 34.354 34.39" xml:space="preserve">
<g>
	<path fill-rule="evenodd" clip-rule="evenodd" d="M19.626,8.758c0,2.096,0.003,4.191-0.004,6.287
		c-0.001,0.248,0.053,0.407,0.28,0.562c1.869,1.262,2.631,3.522,1.916,5.624c-0.714,2.101-2.744,3.452-4.981,3.319
		c-2.032-0.121-3.822-1.57-4.389-3.554c-0.573-2.005,0.181-4.141,1.915-5.331c0.282-0.193,0.361-0.39,0.36-0.712
		c-0.01-4.14-0.009-8.28-0.005-12.42c0.001-1.393,1.028-2.475,2.365-2.517c1.397-0.043,2.534,1.044,2.54,2.455
		C19.633,4.567,19.625,6.663,19.626,8.758z"/>
	<path fill-rule="evenodd" clip-rule="evenodd" d="M31.897,6.276c0,1.291,0.011,2.581-0.008,3.871
		c-0.005,0.284,0.108,0.426,0.325,0.575c1.808,1.25,2.561,3.436,1.908,5.501c-0.643,2.033-2.54,3.423-4.68,3.426
		c-2.118,0.003-4.032-1.386-4.671-3.387c-0.661-2.074,0.076-4.278,1.866-5.514c0.26-0.179,0.361-0.354,0.359-0.675
		c-0.017-2.529-0.018-5.06-0.006-7.59c0.006-1.043,0.501-1.814,1.449-2.245c0.938-0.426,1.828-0.273,2.61,0.385
		c0.567,0.479,0.843,1.113,0.845,1.857C31.9,3.746,31.897,5.011,31.897,6.276z"/>
	<path fill-rule="evenodd" clip-rule="evenodd" d="M7.354,3.834c0,0.077,0,0.153,0,0.23c0,0.46-0.123,0.97,0.037,1.365
		c0.147,0.362,0.603,0.598,0.917,0.896c1.521,1.445,1.937,3.76,1.016,5.641c-0.935,1.909-3.028,3.043-5.044,2.732
		c-2.224-0.343-3.902-1.943-4.213-4.063c-0.3-2.039,0.435-3.655,2.102-4.844c0.22-0.157,0.286-0.309,0.283-0.56
		C2.438,4.339,2.442,3.445,2.446,2.55c0.007-1.444,1.073-2.538,2.463-2.534C6.284,0.02,7.34,1.107,7.354,2.532
		C7.357,2.966,7.354,3.401,7.354,3.834z"/>
	<path fill-rule="evenodd" clip-rule="evenodd" d="M7.355,16.77c0,1.562,0,3.056,0,4.55c0,3.526,0.006,7.054-0.005,10.58
		c-0.003,1.042-0.498,1.816-1.445,2.249C4.97,34.577,4.08,34.425,3.294,33.77c-0.537-0.447-0.84-1.043-0.841-1.74
		c-0.011-5.009-0.006-10.018-0.006-15.026c0-0.061,0.014-0.121,0.026-0.223C4.091,17.332,5.696,17.331,7.355,16.77z"/>
	<path fill-rule="evenodd" clip-rule="evenodd" d="M27.004,21.67c1.627,0.57,3.244,0.579,4.895,0.005c0,0.963,0,1.867,0,2.771
		c0,2.452,0,4.904-0.002,7.356c0,1.457-1.047,2.564-2.425,2.572c-1.413,0.008-2.481-1.085-2.481-2.552
		c-0.004-3.27-0.002-6.539-0.002-9.809C26.988,21.915,26.997,21.814,27.004,21.67z"/>
	<path fill-rule="evenodd" clip-rule="evenodd" d="M14.717,26.588c1.648,0.559,3.253,0.562,4.888,0.006
		c0.008,0.163,0.02,0.284,0.02,0.405c0.001,1.609,0.002,3.219,0,4.829c-0.002,1.445-1.066,2.55-2.45,2.547
		c-1.395-0.003-2.454-1.094-2.457-2.54C14.714,30.112,14.717,28.388,14.717,26.588z"/>
</g>
</svg>
