<?xml version="1.0" encoding="utf-8"?>
<!-- Generator: Adobe Illustrator 16.0.0, SVG Export Plug-In . SVG Version: 6.00 Build 0)  -->
<!DOCTYPE svg PUBLIC "-//W3C//DTD SVG 1.1//EN" "http://www.w3.org/Graphics/SVG/1.1/DTD/svg11.dtd">
<svg version="1.1" id="Layer_1" xmlns="http://www.w3.org/2000/svg" xmlns:xlink="http://www.w3.org/1999/xlink" x="0px" y="0px"
	 width="123.9px" height="86.8px" viewBox="8.4 25.3 123.9 86.8" enable-background="new 8.4 25.3 123.9 86.8" xml:space="preserve"
	>
<path d="M132.2,105.3L96.1,69l36.2-36.1v72.4H132.2z M14.9,112.1L51.3,75.7l8,7.899c3,3,6.6,5,11,5c4.4,0,8-2,11-5l8-7.899
	l36.4,36.399H14.9L14.9,112.1z M125.9,25.3L74,77.4c-1,1-1.9,1.6-3.7,1.6s-2.7-0.6-3.7-1.6L14.7,25.3H125.9L125.9,25.3z M8.4,32.9
	L44.6,69L8.4,105.3V32.9L8.4,32.9z"/>
</svg>
