<?xml version="1.0" encoding="utf-8"?>
<!-- Generator: Adobe Illustrator 16.0.0, SVG Export Plug-In . SVG Version: 6.00 Build 0)  -->
<!DOCTYPE svg PUBLIC "-//W3C//DTD SVG 1.1//EN" "http://www.w3.org/Graphics/SVG/1.1/DTD/svg11.dtd">
<svg version="1.1" id="Layer_1" xmlns="http://www.w3.org/2000/svg" xmlns:xlink="http://www.w3.org/1999/xlink" x="0px" y="0px"
	 width="16px" height="12px" viewBox="0 0 16 12" enable-background="new 0 0 16 12" xml:space="preserve">
<path d="M8,4c0,1.104-0.896,2-2,2c0,1.104,0.896,2,2,2s2-0.896,2-2S9.104,4,8,4z M8,0C3.898,0,0,4.648,0,6s3.898,6,8,6s8-4.648,8-6
	S12.102,0,8,0z M8,10c-2.209,0-4-1.791-4-4s1.791-4,4-4s4,1.791,4,4S10.209,10,8,10z"/>
</svg>
