<?xml version="1.0" encoding="utf-8"?>
<!-- Generator: Adobe Illustrator 16.0.0, SVG Export Plug-In . SVG Version: 6.00 Build 0)  -->
<!DOCTYPE svg PUBLIC "-//W3C//DTD SVG 1.1//EN" "http://www.w3.org/Graphics/SVG/1.1/DTD/svg11.dtd">
<svg version="1.1" id="Layer_1" xmlns="http://www.w3.org/2000/svg" xmlns:xlink="http://www.w3.org/1999/xlink" x="0px" y="0px"
	 width="40px" height="25.153px" viewBox="0 0 40 25.153" enable-background="new 0 0 40 25.153" xml:space="preserve">
<g>
	<path fill-rule="evenodd" clip-rule="evenodd" d="M14.748,15.623c-0.042-0.146-0.076-0.262-0.109-0.378
		c-0.402-1.414-1.553-2.242-3.012-2.13c-0.271,0.021-0.345-0.065-0.418-0.294c-0.329-1.024-0.912-1.826-2.036-2.05
		c-0.724-0.145-1.377-0.091-1.95,0.542c-0.843,0.931-1.786,1.771-2.656,2.621c-0.817-0.755-1.576-1.531-2.417-2.205
		c-0.584-0.467-1.273-0.808-1.934-1.17c-0.204-0.112-0.259-0.211-0.18-0.406c0.183-0.451,0.36-0.904,0.558-1.348
		C1.708,6.296,2.831,3.79,3.949,1.282c0.359-0.804,1.03-1.032,1.818-0.609C5.91,0.749,6.051,0.829,6.189,0.915
		c1.375,0.853,2.899,1.018,4.457,0.864c0.648-0.063,1.272-0.354,1.913-0.521c1.796-0.467,3.596-0.916,5.476-0.849
		C18.523,0.428,19,0.496,19.454,0.841c-0.6,0.57-1.174,1.117-1.751,1.661c-1.488,1.403-2.979,2.804-4.466,4.208
		c-0.485,0.458-0.6,1.637-0.209,2.319c1.244,2.17,3.364,2.665,5.51,1.625c1.678-0.814,3.109-2.017,4.489-3.266
		c0.119-0.108,0.239-0.215,0.392-0.353c0.363,0.277,0.719,0.542,1.067,0.815c2.25,1.766,4.481,3.554,6.439,5.651
		c0.433,0.463,0.823,0.972,1.189,1.49c0.574,0.811,0.554,1.709,0.234,2.599c-0.313,0.877-1.18,1.28-2.314,1.143
		c-0.238-0.028-0.478-0.059-0.735-0.091c-0.132,0.93-0.471,1.706-1.334,2.127c-0.83,0.404-1.688,0.24-2.53,0.045
		c-0.654,2.16-0.945,2.364-3.216,2.255c-0.399,0.872-0.845,1.747-1.88,2.019c-0.574,0.15-1.15,0.052-1.826-0.366
		c0.374-0.316,0.718-0.576,1.025-0.876c0.698-0.682,1.385-1.375,2.058-2.081c0.128-0.134,0.242-0.347,0.243-0.524
		c0.005-0.694-0.095-1.378-0.433-2.001c-0.524-0.966-1.375-1.356-2.432-1.29c-0.386,0.023-0.555-0.042-0.678-0.445
		c-0.422-1.392-1.541-2.087-2.988-1.928C15.134,15.594,14.958,15.605,14.748,15.623z"/>
	<path fill-rule="evenodd" clip-rule="evenodd" d="M14.063,7.835c-0.011-0.316,0.104-0.58,0.394-0.806
		c2.504-1.953,4.853-4.081,7.012-6.411c0.72-0.776,1.578-0.667,2.447-0.497c0.526,0.103,1.049,0.279,1.54,0.498
		c1.473,0.657,3.015,1.066,4.61,1.212c1.629,0.15,3.138-0.292,4.5-1.207c0.554-0.372,1.021-0.245,1.306,0.361
		c0.998,2.131,1.996,4.262,2.998,6.391c0.334,0.71,0.686,1.412,1.018,2.122c0.229,0.487,0.106,0.885-0.316,1.214
		c-1.246,0.973-2.487,1.951-3.727,2.931c-0.309,0.244-0.604,0.504-0.906,0.754c-0.593,0.49-1.091,0.443-1.615-0.113
		c-1.188-1.262-2.354-2.548-3.59-3.762c-1.772-1.739-3.645-3.362-5.841-4.566c-0.265-0.145-0.423-0.135-0.668,0.06
		c-1.375,1.099-2.753,2.195-4.167,3.244c-0.926,0.687-1.99,0.934-3.151,0.74C14.987,9.846,14.058,8.797,14.063,7.835z"/>
	<path fill-rule="evenodd" clip-rule="evenodd" d="M15.795,16.414c0.721,0.006,1.255,0.344,1.541,0.991
		c0.283,0.641,0.22,1.291-0.275,1.813c-0.94,0.991-1.897,1.967-2.874,2.921c-0.678,0.662-1.706,0.613-2.369-0.061
		c-0.641-0.652-0.663-1.667-0.017-2.34c0.928-0.966,1.876-1.911,2.819-2.862C14.942,16.554,15.338,16.406,15.795,16.414z"/>
	<path fill-rule="evenodd" clip-rule="evenodd" d="M12.188,14.178c0.689,0.038,1.225,0.366,1.512,1.017
		c0.294,0.666,0.188,1.307-0.313,1.842c-0.592,0.631-1.211,1.237-1.818,1.854c-0.322,0.328-0.633,0.668-0.967,0.983
		c-0.733,0.693-1.748,0.679-2.431-0.022c-0.654-0.671-0.635-1.691,0.057-2.399c0.898-0.919,1.808-1.827,2.705-2.748
		C11.274,14.354,11.685,14.193,12.188,14.178z"/>
	<path fill-rule="evenodd" clip-rule="evenodd" d="M4.286,16.118c-0.02-0.445,0.167-0.84,0.492-1.172
		c0.899-0.918,1.795-1.84,2.707-2.745c0.729-0.723,1.781-0.722,2.464-0.024c0.666,0.68,0.636,1.707-0.074,2.429
		c-0.91,0.926-1.815,1.857-2.737,2.771c-0.525,0.521-1.162,0.606-1.835,0.338C4.66,17.46,4.283,16.855,4.286,16.118z"/>
	<path fill-rule="evenodd" clip-rule="evenodd" d="M20.896,20.536c0.012,0.457-0.148,0.844-0.469,1.168
		c-0.912,0.925-1.819,1.854-2.736,2.773c-0.708,0.71-1.704,0.736-2.397,0.079c-0.702-0.666-0.735-1.707-0.042-2.43
		c0.908-0.947,1.83-1.881,2.763-2.804c0.533-0.525,1.177-0.639,1.871-0.357C20.522,19.224,20.899,19.829,20.896,20.536z"/>
</g>
</svg>
