<?xml version="1.0" encoding="utf-8"?>
<!-- Generator: Adobe Illustrator 16.0.0, SVG Export Plug-In . SVG Version: 6.00 Build 0)  -->
<!DOCTYPE svg PUBLIC "-//W3C//DTD SVG 1.1//EN" "http://www.w3.org/Graphics/SVG/1.1/DTD/svg11.dtd">
<svg version="1.1" id="Layer_1" xmlns="http://www.w3.org/2000/svg" xmlns:xlink="http://www.w3.org/1999/xlink" x="0px" y="0px"
	 width="46.999px" height="49.793px" viewBox="8.501 7.103 46.999 49.793" enable-background="new 8.501 7.103 46.999 49.793"
	 xml:space="preserve">
<g>
	<path d="M13.068,36.785v19.236c0,0.482,0.392,0.875,0.876,0.875h20.645V39.479h9.698v17.418h5.77c0.484,0,0.875-0.393,0.875-0.875
		V36.785l-18.92-18.84L13.068,36.785z M28.464,47.594h-8.751V39.48h8.751V47.594z"/>
	<path d="M54.768,29.868L32.001,7.103l-10.74,10.739v-4.726c0-1.104-0.896-2-2-2s-2,0.896-2,2v8.726l-8.027,8.026
		c-0.977,0.977-0.977,2.56,0,3.536c0.488,0.488,1.128,0.732,1.768,0.732s1.279-0.244,1.768-0.732l19.232-19.229l19.23,19.229
		c0.977,0.977,2.559,0.977,3.535,0C55.743,32.427,55.743,30.844,54.768,29.868z"/>
</g>
</svg>
