<?xml version="1.0" encoding="utf-8"?>
<!-- Generator: Adobe Illustrator 16.0.0, SVG Export Plug-In . SVG Version: 6.00 Build 0)  -->
<!DOCTYPE svg PUBLIC "-//W3C//DTD SVG 1.1//EN" "http://www.w3.org/Graphics/SVG/1.1/DTD/svg11.dtd">
<svg version="1.1" id="Layer_1" xmlns="http://www.w3.org/2000/svg" xmlns:xlink="http://www.w3.org/1999/xlink" x="0px" y="0px"
	 width="40px" height="55.464px" viewBox="0 0 40 55.464" enable-background="new 0 0 40 55.464" xml:space="preserve">
<g>
	<path fill-rule="evenodd" clip-rule="evenodd" fill="#030303" d="M3.684,48.917c-0.778-1.428-1.557-2.855-2.335-4.283
		c-0.186-0.6-0.372-1.199-0.557-1.798C0.528,40.98,0.264,39.124,0,37.269c0.015-0.724,0.031-1.447,0.046-2.171
		c0.702-3.954,2.122-7.598,4.653-10.761c0.795-0.792,1.59-1.585,2.385-2.377c1.072-0.697,2.068-1.583,3.233-2.049
		c1.702-0.68,2.231-1.754,1.815-3.441c-0.003-0.725-0.007-1.449-0.01-2.173c0.214-1.207,0.218-2.299-1.017-3.078
		c-0.531-0.335-0.624-1.053-0.706-1.682c0.174-1.341,0.936-2.048,2.174-2.654c1.271-0.621,2.961-1.384,1.971-3.46
		C14.78,2.292,13.984,1.086,14.8,0c3.467,0,6.934,0,10.399,0c0.854,1.535,0.113,3.101-0.026,4.616
		c-0.165,1.792,0.154,2.725,2.164,2.351c0.263-0.049,0.561,0.091,0.842,0.144c0.301,0.244,0.603,0.487,0.903,0.731
		c0.662,1.491,0.691,2.806-0.772,3.934c-1.007,0.776-0.37,1.954-0.442,2.955c0.003,0.724,0.007,1.449,0.01,2.173
		c-0.452,1.491,0.181,2.329,1.577,2.841c0.775,0.285,1.47,0.788,2.201,1.193c0.306,0.238,0.61,0.477,0.916,0.714
		c1.017,1.013,2.031,2.027,3.047,3.04c0.238,0.306,0.477,0.611,0.715,0.917c0.774,1.43,1.549,2.859,2.323,4.289
		c0.184,0.6,0.368,1.198,0.553,1.798c0.264,1.855,0.527,3.711,0.791,5.566c-0.016,0.724-0.031,1.447-0.046,2.171
		c-0.748,4.157-2.309,7.946-5.066,11.193c-0.363,0.377-0.726,0.754-1.089,1.131c-1.771,0.603-1.512,2.593-2.533,3.707
		c-7.511,0-15.021,0-22.532,0c-0.823-2.357-2.54-4.025-4.34-5.63C4.157,49.529,3.921,49.223,3.684,48.917z M15.292,12.975
		c-0.034-1.151-0.081-2.303-0.098-3.454c-0.01-0.651-0.337-0.923-0.949-0.854c-0.674,0.077-1.498-0.319-1.949,0.518
		c-0.181,0.336-0.132,0.873,0.209,0.948c2.015,0.446,1.216,2.113,1.506,3.304c-0.034,2.163-0.068,4.326-0.102,6.488
		c-0.825,0.429-1.653,0.854-2.476,1.29C1.467,26.495-1.476,39.991,5.559,48.151c0.807,1.561,1.976,2.758,3.557,3.54
		c0.715,0.623-0.003,2.192,1.961,2.124c5.986-0.211,11.984-0.066,17.977-0.097c0.469-0.002,1.352,0.403,1.316-0.559
		c-0.045-1.206,0.901-1.553,1.566-2.145c1.914-1.701,3.394-3.711,4.539-5.999c1.58-3.154,1.488-6.481,1.34-9.883
		c-0.142-3.224-0.985-6.051-3.357-8.32c-0.504-1.945-2.062-2.944-3.577-3.981c-0.299-0.477-0.746-0.743-1.273-0.896
		c-1.174-0.669-2.348-1.339-3.522-2.01c-0.032-0.721-0.064-1.442-0.097-2.163c0.006-2.165,0.012-4.329,0.017-6.494
		c0.22-0.263,0.394-0.675,0.668-0.759c0.668-0.206,1.293-0.421,1.056-1.253c-0.194-0.681-0.872-0.556-1.435-0.597
		c-2.355-0.174-1.279,1.575-1.478,2.609c-0.648,4.192-0.648,4.192-4.38,4.408c-0.725-0.003-1.448-0.006-2.173-0.01
		C16.103,16.061,15.426,14.818,15.292,12.975z"/>
	<path fill-rule="evenodd" clip-rule="evenodd" fill="#030303" d="M10.419,50.546c-1.276-1.129-2.551-2.258-3.827-3.388
		c-2.873-4.65-3.929-9.547-2.364-14.943c0.578-1.991,1.417-3.179,3.642-2.817c2.165-0.003,4.33-0.007,6.494-0.01
		c0.724,0.003,1.449,0.007,2.172,0.01c2.165-0.003,4.329-0.007,6.494-0.01c0.724,0.003,1.448,0.007,2.172,0.01
		c2.165-0.003,4.329-0.007,6.494-0.01c3.381,0.188,3.581,0.235,4.271,3.691c1.324,6.645-0.595,12.137-5.597,16.867
		c-1.979,1.871-3.871,2.113-6.211,2.063c-3.174-0.068-6.351-0.009-9.525-0.021C13.072,51.983,11.365,52.368,10.419,50.546z
		 M28.121,43.081c1.136-0.267,2.305-0.677,2.346-2.378c0.039-1.561-0.548-2.652-2.193-2.729c-1.574-0.074-2.611,0.748-2.685,2.393
		C25.52,41.925,26.23,42.947,28.121,43.081z M25.353,45.533c-0.691-0.626-0.831-1.879-2.133-1.75
		c-1.178,0.116-1.835,0.893-1.804,2.024c0.032,1.112,0.693,1.985,1.888,1.805C24.308,47.461,24.964,46.643,25.353,45.533z
		 M26.561,34.929c-0.05-0.936-0.513-1.514-1.442-1.543c-0.943-0.029-1.5,0.603-1.53,1.453c-0.03,0.866,0.526,1.507,1.452,1.526
		C25.957,36.385,26.467,35.833,26.561,34.929z"/>
</g>
</svg>
