<?xml version="1.0" encoding="utf-8"?>
<!-- Generator: Adobe Illustrator 16.0.0, SVG Export Plug-In . SVG Version: 6.00 Build 0)  -->
<!DOCTYPE svg PUBLIC "-//W3C//DTD SVG 1.1//EN" "http://www.w3.org/Graphics/SVG/1.1/DTD/svg11.dtd">
<svg version="1.1" id="Layer_1" xmlns="http://www.w3.org/2000/svg" xmlns:xlink="http://www.w3.org/1999/xlink" x="0px" y="0px"
	 width="21.423px" height="21.421px" viewBox="0 0 21.423 21.421" enable-background="new 0 0 21.423 21.421" xml:space="preserve">
<g id="Page-1">
	<g id="icon-111-search">
		<path id="search" fill="#157EFB" d="M13.428,15.428C12.037,16.418,10.336,17,8.5,17C3.806,17,0,13.194,0,8.5S3.806,0,8.5,0
			S17,3.806,17,8.5c0,1.836-0.582,3.537-1.572,4.928l5.584,5.584c0.551,0.551,0.546,1.431,0,1.977l-0.023,0.023
			c-0.545,0.545-1.431,0.546-1.977,0L13.428,15.428L13.428,15.428z M8.5,15c3.59,0,6.5-2.91,6.5-6.5S12.09,2,8.5,2S2,4.91,2,8.5
			S4.91,15,8.5,15L8.5,15z"/>
	</g>
</g>
</svg>
