<?xml version="1.0" encoding="utf-8"?>
<!-- Generator: Adobe Illustrator 16.0.0, SVG Export Plug-In . SVG Version: 6.00 Build 0)  -->
<!DOCTYPE svg PUBLIC "-//W3C//DTD SVG 1.1//EN" "http://www.w3.org/Graphics/SVG/1.1/DTD/svg11.dtd">
<svg version="1.1" id="Layer_1" xmlns="http://www.w3.org/2000/svg" xmlns:xlink="http://www.w3.org/1999/xlink" x="0px" y="0px"
	 width="30px" height="30.039px" viewBox="0 0 30 30.039" enable-background="new 0 0 30 30.039" xml:space="preserve">
<path d="M28.193,11.926h-1.188c-0.97,0-1.783-0.836-1.783-1.83c0-0.5,0.212-0.955,0.587-1.291l0.767-0.751
	c0.759-0.75,0.759-1.979,0-2.729l-1.744-1.728c-0.345-0.344-0.853-0.547-1.369-0.547c-0.516,0-1.017,0.203-1.368,0.547l-0.735,0.735
	c-0.352,0.391-0.821,0.603-1.329,0.603c-1.001,0-1.838-0.813-1.838-1.775V1.963C18.191,0.907,17.338,0,16.275,0h-2.377
	c-1.064,0-1.909,0.899-1.909,1.963v1.189c0,0.962-0.836,1.775-1.837,1.775c-0.5,0-0.962-0.211-1.298-0.579l-0.759-0.75
	C7.75,3.246,7.242,3.05,6.726,3.05S5.709,3.253,5.357,3.598l-1.759,1.72c-0.751,0.751-0.751,1.979,0,2.722l0.735,0.735
	c0.391,0.352,0.61,0.821,0.61,1.322c0,1.001-0.813,1.83-1.783,1.83H1.971c-1.071,0-1.971,0.837-1.971,1.9v1.189v1.188
	c0,1.056,0.899,1.9,1.971,1.9H3.16c0.97,0,1.783,0.837,1.783,1.83c0,0.501-0.219,0.97-0.61,1.322l-0.735,0.727
	c-0.751,0.751-0.751,1.979,0,2.722l1.744,1.736c0.344,0.352,0.853,0.548,1.369,0.548s1.017-0.204,1.369-0.548l0.759-0.751
	c0.329-0.367,0.798-0.578,1.298-0.578c1.001,0,1.837,0.813,1.837,1.775v1.188c0,1.056,0.845,1.963,1.917,1.963h2.377
	c1.063,0,1.908-0.899,1.908-1.963v-1.188c0-0.962,0.837-1.775,1.838-1.775c0.5,0,0.97,0.219,1.329,0.602l0.735,0.735
	c0.352,0.344,0.853,0.548,1.368,0.548c0.517,0,1.017-0.204,1.369-0.548l1.744-1.736c0.751-0.751,0.751-1.979,0-2.729l-0.767-0.75
	c-0.376-0.337-0.587-0.798-0.587-1.291c0-1.001,0.813-1.83,1.783-1.83h1.188c1.064,0,1.822-0.837,1.822-1.9v-1.196v-1.189
	C30.015,12.763,29.257,11.926,28.193,11.926z M21.334,15.016L21.334,15.016c0,3.449-2.792,6.257-6.256,6.257
	s-6.256-2.808-6.256-6.257l0,0l0,0c0-3.449,2.792-6.256,6.256-6.256S21.334,11.567,21.334,15.016L21.334,15.016z"/>
</svg>
