<?xml version="1.0" encoding="utf-8"?>
<!-- Generator: Adobe Illustrator 16.0.0, SVG Export Plug-In . SVG Version: 6.00 Build 0)  -->
<!DOCTYPE svg PUBLIC "-//W3C//DTD SVG 1.1//EN" "http://www.w3.org/Graphics/SVG/1.1/DTD/svg11.dtd">
<svg version="1.1" id="Layer_1" xmlns="http://www.w3.org/2000/svg" xmlns:xlink="http://www.w3.org/1999/xlink" x="0px" y="0px"
	 width="95.001px" height="98.162px" viewBox="0 0 95.001 98.162" enable-background="new 0 0 95.001 98.162" xml:space="preserve">
<g>
	<path fill="#232323" d="M1.733,66.747L1.717,66.75c0.006,0.013,0.01,0.022,0.016,0.036c0.008,0.102,0.026,0.195,0.04,0.293
		c0.002,0.018,0,0.029,0.002,0.045l3.929,25.514c0.476,3.098,3.374,5.221,6.47,4.743c3.098-0.476,5.222-3.372,4.746-6.471
		l-0.611-3.966c0.712,0.588,1.43,1.17,2.175,1.715c10.106,7.42,23.111,10.986,36.487,8.926c13.371-2.057,24.701-9.37,32.108-19.486
		c3.662-4.988,6.353-10.695,7.922-16.793l-15.479-4.263c-1.043,4.19-2.881,8.108-5.404,11.552
		C69.105,75.419,61.551,80.308,52.523,81.7c-9.026,1.388-17.705-1.002-24.536-6.004c-0.841-0.616-1.645-1.282-2.424-1.977
		l4.488,0.436c2.872,0.275,5.445-2.025,5.748-5.145c0.3-3.119-1.783-5.873-4.655-6.15L7.486,60.569
		c-2.568-0.247-4.884,1.572-5.564,4.189c-0.05,0.184-0.076,0.373-0.109,0.564c-0.021,0.132-0.061,0.255-0.074,0.39
		c-0.004,0.041,0.002,0.077-0.001,0.114c-0.013,0.174-0.004,0.352-0.002,0.527C1.735,66.487,1.724,66.62,1.733,66.747z"/>
	<path fill="#232323" d="M93.268,31.415l0.015-0.002c-0.007-0.013-0.011-0.024-0.017-0.037c-0.008-0.1-0.027-0.195-0.039-0.293
		c-0.002-0.015,0-0.029-0.002-0.044L89.296,5.526c-0.478-3.097-3.373-5.221-6.472-4.744c-3.098,0.477-5.221,3.373-4.744,6.47
		l0.611,3.967c-0.715-0.587-1.433-1.169-2.176-1.715C66.409,2.085,53.402-1.485,40.031,0.578
		C26.657,2.633,15.328,9.949,7.922,20.065C4.258,25.054,1.567,30.761,0,36.859l15.479,4.26c1.042-4.19,2.882-8.108,5.403-11.551
		c5.012-6.824,12.569-11.712,21.595-13.105c9.027-1.386,17.703,1.002,24.537,6.002c0.84,0.618,1.645,1.284,2.422,1.976l-4.486-0.434
		c-2.872-0.278-5.445,2.026-5.747,5.144c-0.304,3.119,1.782,5.873,4.653,6.15l23.658,2.291c2.568,0.248,4.885-1.572,5.564-4.188
		c0.05-0.184,0.076-0.374,0.107-0.565c0.021-0.132,0.063-0.255,0.074-0.391c0.006-0.038-0.003-0.075,0-0.112
		c0.014-0.175,0.008-0.353,0.004-0.53C93.264,31.676,93.273,31.543,93.268,31.415z"/>
</g>
</svg>
