<?xml version="1.0" encoding="utf-8"?>
<!-- Generator: Adobe Illustrator 16.0.0, SVG Export Plug-In . SVG Version: 6.00 Build 0)  -->
<!DOCTYPE svg PUBLIC "-//W3C//DTD SVG 1.1//EN" "http://www.w3.org/Graphics/SVG/1.1/DTD/svg11.dtd">
<svg version="1.1" id="Layer_1" xmlns="http://www.w3.org/2000/svg" xmlns:xlink="http://www.w3.org/1999/xlink" x="0px" y="0px"
	 width="51.764px" height="50.952px" viewBox="0 0 51.764 50.952" enable-background="new 0 0 51.764 50.952" xml:space="preserve">
<g>
	<path fill-rule="evenodd" clip-rule="evenodd" d="M0,37.904c0.391-1.184,1.243-1.607,2.448-1.597
		c3.257,0.028,6.515,0.007,9.772,0.015c0.334,0,0.682,0.016,1.002,0.104c0.814,0.224,1.371,0.974,1.373,1.857
		c0.01,3.563,0.012,7.123,0,10.685c-0.004,1.119-0.816,1.962-1.953,1.97c-3.561,0.023-7.123,0.016-10.684,0.003
		C0.954,50.938,0.388,50.299,0,49.453C0,45.604,0,41.754,0,37.904z"/>
	<path fill-rule="evenodd" clip-rule="evenodd" d="M0,19.467c0.459-1.167,1.342-1.542,2.555-1.526
		c3.239,0.043,6.48,0.014,9.72,0.015c1.578,0,2.326,0.748,2.326,2.321c0.001,3.341,0.001,6.682,0,10.023
		c-0.001,1.526-0.737,2.261-2.266,2.261c-3.308,0-6.615-0.029-9.922,0.016C1.208,32.592,0.408,32.149,0,31.016
		C0,27.166,0,23.316,0,19.467z"/>
	<path fill-rule="evenodd" clip-rule="evenodd" d="M0,1.536C0.44,0.391,1.281-0.016,2.49,0c3.291,0.045,6.582,0.015,9.873,0.016
		c1.478,0.001,2.237,0.763,2.238,2.247c0.002,3.375,0.002,6.751,0,10.126c-0.001,1.478-0.76,2.227-2.252,2.227
		c-3.291,0.001-6.583-0.033-9.873,0.017C1.256,14.652,0.429,14.235,0,13.084C0,9.235,0,5.385,0,1.536z"/>
	<path fill-rule="evenodd" clip-rule="evenodd" d="M32.978,43.627c0,1.688,0.004,3.377-0.002,5.064
		c-0.004,1.473-0.785,2.255-2.248,2.256c-3.376,0.002-6.752,0.002-10.128,0c-1.453-0.002-2.241-0.799-2.242-2.268
		c-0.002-3.359-0.002-6.719,0-10.077c0-1.494,0.778-2.28,2.279-2.283c3.359-0.007,6.718-0.007,10.077,0.001
		c1.498,0.002,2.26,0.781,2.263,2.294C32.981,40.285,32.978,41.957,32.978,43.627z"/>
	<path fill-rule="evenodd" clip-rule="evenodd" d="M25.64,14.617c-1.705,0-3.41,0.002-5.115-0.001
		c-1.367-0.002-2.164-0.796-2.166-2.173c-0.005-3.427-0.006-6.854,0-10.28c0.002-1.338,0.813-2.143,2.149-2.145
		c3.444-0.004,6.887-0.004,10.331,0c1.315,0.002,2.128,0.787,2.132,2.104c0.014,3.46,0.014,6.921,0.001,10.381
		c-0.005,1.348-0.808,2.111-2.168,2.114C29.083,14.619,27.362,14.617,25.64,14.617z"/>
	<path fill-rule="evenodd" clip-rule="evenodd" d="M37.159,43.629c0-1.705-0.003-3.409,0.001-5.114
		c0.004-1.387,0.764-2.186,2.147-2.191c3.427-0.016,6.853-0.015,10.28-0.001c1.4,0.006,2.174,0.819,2.175,2.229
		c0.002,3.393,0.003,6.785,0,10.178c-0.001,1.423-0.802,2.217-2.236,2.219c-3.376,0.002-6.752,0.002-10.128,0
		c-1.47-0.002-2.236-0.775-2.238-2.254C37.157,47.005,37.159,45.317,37.159,43.629z"/>
	<path fill-rule="evenodd" clip-rule="evenodd" d="M25.684,32.561c-1.738,0-3.477,0.004-5.215-0.001
		c-1.278-0.003-2.104-0.801-2.107-2.076c-0.01-3.477-0.01-6.954,0-10.431c0.004-1.268,0.829-2.089,2.105-2.093
		c3.477-0.011,6.954-0.012,10.431,0c1.251,0.005,2.067,0.812,2.073,2.066c0.018,3.494,0.018,6.988,0,10.482
		c-0.006,1.285-0.826,2.049-2.122,2.052C29.127,32.563,27.405,32.561,25.684,32.561z"/>
	<path fill-rule="evenodd" clip-rule="evenodd" d="M44.453,14.617c-1.722,0-3.443,0.003-5.165-0.001
		c-1.329-0.003-2.124-0.779-2.126-2.096c-0.008-3.46-0.006-6.92-0.001-10.38c0.003-1.323,0.794-2.12,2.106-2.122
		c3.459-0.005,6.92-0.005,10.38,0c1.296,0.002,2.112,0.823,2.114,2.126c0.005,3.443,0.004,6.886,0,10.33
		c-0.002,1.341-0.804,2.138-2.145,2.142C47.896,14.62,46.173,14.617,44.453,14.617z"/>
	<path fill-rule="evenodd" clip-rule="evenodd" d="M44.468,32.561c-1.738,0-3.477,0.004-5.215-0.001
		c-1.293-0.003-2.09-0.784-2.092-2.075c-0.008-3.478-0.007-6.954,0-10.431c0.002-1.279,0.804-2.09,2.09-2.094
		c3.459-0.011,6.92-0.01,10.379-0.001c1.328,0.004,2.13,0.831,2.131,2.169c0.004,3.426,0.004,6.852,0,10.279
		c-0.001,1.367-0.799,2.152-2.18,2.154C47.876,32.563,46.172,32.561,44.468,32.561z"/>
</g>
</svg>
